<?xml version="1.0" standalone="no"?>
<!DOCTYPE svg PUBLIC "-//W3C//DTD SVG 20010904//EN"
 "http://www.w3.org/TR/2001/REC-SVG-20010904/DTD/svg10.dtd">
<svg version="1.0" xmlns="http://www.w3.org/2000/svg"
 width="512.000000pt" height="512.000000pt" viewBox="0 0 512.000000 512.000000"
 preserveAspectRatio="xMidYMid meet">

<g transform="translate(0.000000,512.000000) scale(0.100000,-0.100000)"
fill="#000000" stroke="none">
<path d="M583 3482 c7 -82 44 -179 95 -246 20 -27 41 -55 46 -62 7 -9 -7 -29
-49 -71 -70 -70 -146 -183 -175 -261 -76 -202 -77 -373 -3 -570 l34 -93 -31
-49 c-50 -79 -73 -154 -78 -263 -4 -84 -1 -108 22 -180 36 -117 111 -220 208
-287 4 -3 -10 -42 -32 -85 -74 -149 -75 -297 -4 -446 113 -235 412 -350 669
-255 38 14 72 22 76 18 3 -4 11 -32 18 -62 54 -223 233 -422 460 -509 112 -43
183 -55 306 -54 253 2 479 113 622 307 l43 58 0 649 0 649 308 0 309 0 112
-312 112 -313 -23 -15 c-56 -37 -100 -87 -130 -148 -30 -61 -33 -74 -33 -162
0 -88 3 -101 33 -162 65 -132 180 -202 332 -202 114 0 188 32 264 115 71 76
99 147 99 249 0 102 -28 173 -99 249 -73 79 -150 114 -259 117 l-79 2 -111
309 c-61 170 -118 319 -127 332 -39 56 -37 56 -385 59 l-323 3 0 355 0 354
583 0 583 0 13 -47 c26 -101 96 -179 208 -230 49 -24 71 -28 144 -27 77 0 94
3 152 32 175 87 255 286 186 467 -31 82 -121 173 -204 205 -83 33 -200 33
-270 2 -112 -51 -191 -136 -216 -233 l-13 -49 -583 0 -583 0 0 355 0 355 298
0 c166 0 313 4 333 10 49 14 75 45 110 130 16 40 29 74 29 76 0 2 -26 4 -58 4
l-57 0 -18 -50 -18 -50 -309 0 -310 0 0 50 0 50 -53 0 -54 0 -6 -287 c-4 -157
-7 -867 -7 -1578 l0 -1291 -50 -56 c-153 -172 -421 -255 -655 -203 -188 41
-359 169 -442 331 -45 88 -73 186 -73 257 0 34 -6 53 -20 67 -26 26 -40 25
-84 -5 -154 -105 -311 -121 -465 -48 -72 35 -155 117 -189 190 -24 52 -27 70
-27 163 0 94 3 111 28 161 39 80 46 84 104 65 83 -28 141 -31 163 -11 25 22
26 57 3 77 -10 9 -45 21 -78 28 -146 29 -270 125 -334 259 -34 71 -36 82 -36
171 0 95 18 169 51 215 13 17 19 13 93 -58 43 -42 85 -77 93 -77 26 0 58 31
58 57 0 18 -20 45 -69 94 -115 113 -179 243 -202 406 -31 224 80 478 271 618
69 50 67 71 -10 145 -73 71 -122 166 -128 252 l-4 58 -56 0 -55 0 6 -68z
m3862 -691 c91 -40 145 -126 145 -231 0 -147 -108 -253 -255 -254 -160 0 -281
152 -246 308 36 162 202 244 356 177z m-526 -1833 c48 -15 110 -75 137 -133
48 -102 21 -224 -66 -298 -56 -47 -97 -60 -180 -55 -53 3 -78 10 -116 34 -57
35 -110 114 -120 180 -14 96 36 200 122 250 73 43 134 49 223 22z"/>
<path d="M1410 3098 c-60 -98 -66 -234 -16 -343 15 -33 36 -70 48 -82 l21 -22
-27 -63 c-67 -161 -62 -318 15 -475 41 -86 74 -123 108 -123 58 0 67 51 21
120 -84 126 -102 291 -46 425 l15 35 63 -30 c171 -80 382 -61 526 47 22 17 32
32 32 52 0 55 -50 68 -110 28 -68 -46 -128 -62 -230 -62 -85 0 -102 3 -160 31
-36 17 -82 45 -101 62 -87 76 -120 207 -80 312 33 88 25 120 -31 120 -21 0
-33 -8 -48 -32z"/>
<path d="M1703 1725 c-220 -61 -370 -267 -334 -459 20 -107 56 -166 101 -166
54 0 62 33 29 120 -57 148 17 302 180 379 49 23 69 26 162 26 106 0 107 0 192
-44 63 -31 93 -42 112 -37 28 7 44 49 28 75 -16 26 -89 71 -151 94 -74 27
-243 33 -319 12z"/>
<path d="M1786 1175 c-31 -31 -58 -127 -57 -206 0 -176 116 -328 300 -391 94
-33 270 -32 353 1 90 35 152 81 156 114 7 59 -50 76 -113 33 -63 -43 -132 -61
-230 -61 -80 0 -98 4 -155 31 -36 17 -82 45 -101 62 -87 76 -120 207 -80 312
24 63 26 91 9 108 -17 17 -64 15 -82 -3z"/>
</g>
</svg>
