<?xml version="1.0" encoding="UTF-8" standalone="no"?>
<svg
   version="1.0"
   width="1920pt"
   height="1920pt"
   viewBox="0 0 1920 1920"
   preserveAspectRatio="xMidYMid"
   id="svg14"
   sodipodi:docname="artificial-intelligence-symbol-on-white-background-human-brain-with-circuit-digital-technology-conce.svg"
   xmlns:inkscape="http://www.inkscape.org/namespaces/inkscape"
   xmlns:sodipodi="http://sodipodi.sourceforge.net/DTD/sodipodi-0.dtd"
   xmlns="http://www.w3.org/2000/svg"
   xmlns:svg="http://www.w3.org/2000/svg">
  <defs
     id="defs14" />
  <sodipodi:namedview
     id="namedview14"
     pagecolor="#ffffff"
     bordercolor="#000000"
     borderopacity="0.25"
     inkscape:showpageshadow="2"
     inkscape:pageopacity="0.0"
     inkscape:pagecheckerboard="0"
     inkscape:deskcolor="#d1d1d1"
     inkscape:document-units="pt">
    <inkscape:page
       x="0"
       y="0"
       width="1920"
       height="1920"
       id="page2"
       margin="0"
       bleed="0" />
  </sodipodi:namedview>
  <g
     transform="matrix(0.1,0,0,-0.1,0,1920)"
     fill="#000000"
     stroke="none"
     id="g14">
    <path
       d="m 9340,15870 c -586,-47 -1129,-340 -1506,-814 -37,-48 -73,-84 -79,-82 -300,131 -485,175 -775,183 -197,6 -329,-7 -495,-48 -439,-108 -832,-376 -1091,-744 -139,-196 -222,-377 -284,-620 l -28,-110 -114,-7 c -479,-32 -882,-197 -1222,-502 -335,-300 -556,-708 -633,-1166 -24,-146 -24,-455 0,-600 74,-438 255,-796 555,-1096 284,-284 638,-464 1062,-541 72,-14 240,-16 1098,-20 929,-4 1015,-3 1047,13 108,51 109,201 1,253 -42,21 -53,21 -1004,21 -813,0 -978,2 -1064,15 -369,56 -682,212 -941,471 -249,247 -409,567 -468,934 -18,109 -18,401 0,500 34,197 93,380 166,517 183,346 460,608 804,763 172,77 285,109 476,136 139,19 369,15 500,-9 471,-87 864,-350 1130,-756 86,-130 110,-151 180,-151 46,0 59,5 90,31 44,39 62,97 46,150 -16,51 -117,204 -217,326 -250,303 -605,534 -984,638 -69,18 -143,37 -165,41 -22,4 -43,8 -47,10 -9,6 35,166 72,261 86,222 263,471 443,621 215,180 448,294 718,352 218,48 528,37 747,-26 113,-32 243,-84 248,-99 3,-6 -11,-47 -31,-90 -133,-293 -184,-739 -129,-1125 29,-197 125,-525 178,-602 66,-97 207,-87 252,19 21,49 17,74 -27,185 -49,122 -102,326 -120,458 -17,123 -17,408 0,530 50,360 190,646 456,928 272,289 625,473 1045,548 129,22 401,22 530,0 366,-65 647,-212 911,-476 155,-155 252,-291 344,-483 l 57,-118 -87,-82 c -135,-127 -283,-325 -368,-491 -52,-103 -28,-196 61,-233 64,-27 148,7 182,73 211,412 552,688 988,799 126,32 298,55 407,55 179,0 432,-47 616,-114 373,-135 753,-450 955,-791 187,-318 267,-600 267,-940 0,-292 -59,-541 -188,-802 -154,-312 -354,-544 -716,-832 -57,-45 -112,-97 -122,-114 -27,-48 -19,-129 17,-166 48,-50 128,-61 186,-24 63,40 296,240 415,354 72,70 168,174 214,232 l 84,105 41,-82 c 111,-220 294,-399 521,-508 127,-61 189,-55 249,25 25,34 26,104 0,148 -12,21 -38,43 -69,59 -264,131 -399,274 -492,521 -45,121 -51,180 -23,244 57,130 129,378 146,504 l 7,51 h 157 c 387,0 687,-119 941,-374 183,-184 300,-418 344,-691 94,-576 -261,-1162 -820,-1355 -194,-68 -107,-64 -1435,-70 -1178,-5 -1206,-5 -1238,-25 -69,-41 -89,-139 -43,-204 46,-65 -30,-61 1248,-61 1253,0 1256,1 1461,55 526,140 947,566 1083,1097 167,655 -113,1342 -691,1695 -72,44 -213,109 -305,141 -155,54 -332,82 -531,82 h -141 l -7,38 c -3,20 -6,61 -6,90 0,70 -24,223 -54,352 -80,338 -272,694 -513,950 -292,311 -652,527 -1048,631 -138,37 -379,69 -510,69 -125,0 -348,-30 -483,-64 -119,-31 -313,-104 -388,-146 -28,-17 -55,-30 -60,-30 -5,0 -35,51 -66,113 -109,215 -238,387 -420,563 -286,274 -635,448 -1031,514 -133,22 -335,31 -467,20 z"
       id="path1" />
    <path
       d="m 9350,14719 c -427,-52 -775,-414 -844,-880 -18,-121 -5,-170 58,-208 63,-39 151,-19 192,44 9,14 23,61 30,103 49,277 190,488 397,590 105,51 170,67 282,66 175,-2 325,-70 492,-225 50,-46 82,-69 107,-73 110,-21 196,73 167,182 -8,29 -31,58 -89,113 -226,216 -516,322 -792,288 z"
       id="path2" />
    <path
       d="m 12175,13803 c -125,-18 -302,-76 -389,-127 -133,-78 -92,-267 58,-270 26,0 71,12 126,36 110,47 177,66 275,76 340,37 628,-154 711,-468 22,-81 24,-249 5,-346 -16,-84 -9,-132 25,-173 74,-88 213,-49 248,70 42,141 42,360 1,525 -87,343 -372,608 -720,669 -81,14 -267,18 -340,8 z"
       id="path3" />
    <path
       d="m 4560,12412 c -68,-34 -173,-193 -233,-354 -74,-196 -75,-445 -2,-657 112,-328 417,-584 765,-642 131,-22 367,-7 433,28 96,49 114,176 33,238 -43,33 -88,40 -157,26 -30,-6 -97,-12 -149,-12 -184,-1 -339,62 -475,193 -91,87 -135,154 -179,271 -27,76 -30,92 -30,217 -1,104 3,149 17,195 24,79 81,190 123,242 38,46 64,101 64,132 0,12 -7,38 -15,59 -29,71 -121,102 -195,64 z"
       id="path4" />
    <path
       d="m 7869,11554 c -107,-32 -210,-116 -262,-212 -59,-109 -57,-27 -57,-1813 0,-1072 4,-1655 10,-1690 31,-162 153,-297 313,-344 44,-13 265,-15 1727,-15 1462,0 1683,2 1727,15 160,47 282,182 313,344 14,73 14,3298 0,3372 -30,159 -155,297 -313,344 -74,22 -3387,21 -3458,-1 z m 3423,-299 c 15,-11 37,-38 48,-61 20,-40 20,-56 20,-1675 V 7885 l -23,-39 c -12,-21 -38,-47 -57,-57 -33,-18 -97,-19 -1680,-19 -1583,0 -1647,1 -1680,19 -19,10 -45,36 -57,57 l -23,39 v 1632 c 0,1129 3,1640 11,1660 12,33 56,82 84,93 11,5 765,8 1675,7 1638,-2 1655,-2 1682,-22 z"
       id="path5" />
    <path
       d="m 9150,10612 c -42,-7 -78,-40 -103,-95 -14,-28 -132,-322 -262,-652 -131,-330 -296,-746 -366,-924 -88,-220 -129,-337 -129,-363 0,-96 84,-162 175,-137 71,20 83,40 205,345 l 115,289 397,3 396,2 114,-287 c 121,-307 137,-334 207,-353 54,-14 106,5 144,53 25,31 31,46 29,85 -1,37 -85,258 -384,1011 -356,896 -385,966 -418,991 -36,29 -77,40 -120,32 z m 85,-667 c 26,-66 87,-220 136,-342 49,-123 89,-225 89,-228 0,-3 -126,-5 -279,-5 h -280 l 19,48 c 11,26 66,166 124,312 123,312 136,343 141,338 2,-2 25,-58 50,-123 z"
       id="path6" />
    <path
       d="m 10665,10611 c -52,-17 -76,-37 -95,-76 -20,-41 -20,-55 -18,-1023 3,-973 3,-981 24,-1008 66,-89 175,-91 239,-6 20,27 20,45 23,1015 l 2,989 -22,39 c -14,25 -37,46 -63,59 -43,21 -57,23 -90,11 z"
       id="path7" />
    <path
       d="m 5925,9048 c -16,-6 -40,-20 -52,-31 -13,-11 -103,-139 -200,-284 l -177,-263 h -386 -387 l -12,43 c -40,134 -167,291 -286,353 -112,59 -189,78 -305,78 -126,0 -207,-22 -312,-85 -297,-176 -394,-553 -219,-848 79,-134 231,-247 386,-286 76,-19 214,-19 290,0 33,8 96,33 141,55 135,66 260,210 300,348 l 15,52 h 437 c 418,0 437,1 478,20 37,18 62,51 225,295 l 184,274 405,1 h 405 l 36,24 c 38,26 69,78 69,117 0,38 -38,103 -72,124 -31,19 -54,20 -483,22 -299,1 -460,-2 -480,-9 z M 4256,8626 c 65,-30 132,-96 165,-161 35,-73 35,-198 -2,-275 -32,-68 -84,-122 -152,-158 -46,-24 -63,-27 -147,-27 -83,0 -101,3 -145,27 -70,37 -137,112 -164,184 -68,178 46,386 236,434 56,14 149,3 209,-24 z"
       id="path8" />
    <path
       d="m 12345,9049 c -55,-16 -105,-82 -105,-140 0,-37 32,-89 69,-115 l 36,-24 h 405 l 405,-1 184,-274 c 163,-244 188,-277 225,-295 41,-19 60,-20 478,-20 h 437 l 15,-52 c 40,-138 165,-282 300,-348 105,-52 180,-70 286,-70 104,0 180,18 280,67 103,50 221,168 273,273 146,292 42,642 -241,809 -105,63 -186,85 -312,85 -116,0 -193,-19 -304,-77 -120,-63 -247,-220 -287,-354 l -12,-43 h -387 -386 l -176,263 c -97,144 -187,272 -200,283 -13,12 -38,26 -57,33 -41,13 -879,14 -926,0 z m 2871,-423 c 153,-70 232,-256 173,-410 -27,-72 -94,-147 -164,-184 -44,-24 -62,-27 -145,-27 -84,0 -101,3 -147,27 -68,36 -120,90 -152,158 -37,77 -37,202 -2,275 44,88 133,161 228,185 56,14 149,3 209,-24 z"
       id="path9" />
    <path
       d="m 6013,7453 c -17,-10 -190,-184 -384,-388 -194,-203 -392,-410 -439,-458 l -85,-88 -32,16 c -70,35 -167,55 -263,55 -167,0 -302,-54 -423,-169 -83,-80 -130,-153 -164,-254 -131,-399 167,-811 587,-811 170,0 316,60 436,181 190,189 235,464 118,715 l -37,78 73,78 c 74,77 107,111 524,545 l 218,227 h 346 c 329,0 348,1 388,21 80,38 105,137 54,209 -43,60 -41,60 -482,60 -366,0 -406,-2 -435,-17 z M 4910,6288 c 47,-15 131,-71 156,-105 56,-75 69,-114 69,-208 0,-75 -4,-98 -24,-140 -80,-161 -276,-236 -432,-163 -207,96 -263,358 -110,521 94,100 214,134 341,95 z"
       id="path10" />
    <path
       d="m 12315,7451 c -99,-60 -94,-201 9,-250 40,-20 59,-21 388,-21 h 346 l 218,-227 c 417,-434 450,-468 524,-545 l 73,-78 -37,-78 c -88,-189 -87,-375 5,-560 101,-206 314,-336 549,-336 355,0 640,302 616,654 -11,165 -72,296 -193,411 -121,115 -256,169 -423,169 -96,0 -193,-20 -263,-55 l -32,-16 -85,88 c -47,48 -245,255 -439,458 -194,204 -367,378 -384,388 -29,15 -70,17 -437,17 -377,0 -407,-1 -435,-19 z m 2207,-1178 c 123,-54 204,-183 196,-313 -17,-287 -359,-421 -560,-218 -71,71 -93,127 -93,233 0,79 4,97 28,143 65,123 199,199 327,185 25,-3 71,-16 102,-30 z"
       id="path11" />
    <path
       d="m 7732,6760 c -18,-11 -41,-34 -52,-52 -19,-31 -20,-51 -20,-430 v -397 l -227,-117 c -368,-188 -477,-246 -492,-258 -8,-6 -22,-29 -32,-51 -17,-37 -19,-76 -19,-476 v -436 l -42,-12 c -83,-25 -178,-83 -247,-152 -111,-111 -169,-241 -178,-401 -17,-288 160,-540 442,-630 99,-31 242,-31 345,1 203,62 350,207 421,416 33,97 33,249 2,350 -61,195 -201,343 -386,410 l -62,23 -3,380 -2,380 315,162 c 411,210 405,206 433,260 22,44 22,48 22,486 0,439 0,441 -23,484 -39,75 -127,102 -195,60 z M 7156,4249 c 222,-83 283,-374 113,-539 -113,-109 -266,-127 -400,-47 -104,63 -164,175 -157,295 8,143 101,261 238,303 51,15 148,9 206,-12 z"
       id="path12" />
    <path
       d="m 9545,6770 c -11,-4 -33,-22 -50,-40 l -30,-31 -3,-779 -2,-779 -50,-15 c -88,-26 -172,-78 -246,-153 -341,-340 -180,-916 291,-1038 76,-19 214,-19 290,0 471,122 632,697 291,1038 -72,73 -176,137 -244,152 -22,5 -36,15 -43,32 -5,14 -9,331 -9,776 0,720 -1,753 -19,781 -38,58 -114,82 -176,56 z m 188,-1933 c 209,-95 262,-357 106,-522 -138,-146 -340,-146 -478,0 -168,177 -95,452 142,537 69,25 156,19 230,-15 z"
       id="path13" />
    <path
       d="m 11330,6761 c -20,-10 -44,-36 -57,-61 -23,-43 -23,-45 -23,-484 0,-438 0,-442 23,-486 27,-54 21,-50 432,-260 l 315,-162 -2,-380 -3,-380 -62,-23 c -256,-92 -428,-353 -409,-620 17,-259 194,-480 446,-556 103,-32 246,-32 345,-1 268,86 445,323 445,597 0,101 -19,177 -70,281 -68,139 -212,262 -357,305 l -43,12 v 436 c 0,400 -2,439 -19,476 -10,22 -24,45 -32,51 -15,12 -124,70 -491,258 l -228,117 v 397 c 0,379 -1,399 -20,430 -41,67 -122,90 -190,53 z m 977,-2524 c 109,-56 174,-156 181,-279 7,-120 -53,-232 -157,-295 -134,-80 -287,-62 -400,47 -168,163 -112,444 105,536 81,34 194,30 271,-9 z"
       id="path14" />
  </g>
</svg>
