<?xml version="1.0" encoding="UTF-8" standalone="no"?>
<!-- Uploaded to: SVG Repo, www.svgrepo.com, Generator: SVG Repo Mixer Tools -->

<svg
   fill="#000000"
   height="800px"
   width="800px"
   version="1.1"
   id="Layer_1"
   viewBox="0 0 491.52 491.52"
   xml:space="preserve"
   sodipodi:docname="brain-svgrepo-com.svg"
   inkscape:version="1.4 (86a8ad7, 2024-10-11)"
   xmlns:inkscape="http://www.inkscape.org/namespaces/inkscape"
   xmlns:sodipodi="http://sodipodi.sourceforge.net/DTD/sodipodi-0.dtd"
   xmlns="http://www.w3.org/2000/svg"
   xmlns:svg="http://www.w3.org/2000/svg"><defs
   id="defs4" /><sodipodi:namedview
   id="namedview4"
   pagecolor="#ffffff"
   bordercolor="#000000"
   borderopacity="0.25"
   inkscape:showpageshadow="2"
   inkscape:pageopacity="0.0"
   inkscape:pagecheckerboard="0"
   inkscape:deskcolor="#d1d1d1"
   inkscape:zoom="0.75125"
   inkscape:cx="399.33444"
   inkscape:cy="400"
   inkscape:window-width="1688"
   inkscape:window-height="803"
   inkscape:window-x="-8"
   inkscape:window-y="-8"
   inkscape:window-maximized="1"
   inkscape:current-layer="Layer_1" />
<g
   id="g2">
	<g
   id="g1">
		<path
   d="M410.9,192.2C409.45,85.97,321.71,0,214.06,0C105.52,0,17.21,87.42,17.26,193.89c-0.27,2.78-6.07,68.89,41.09,136.09    c20.27,28.9,33.38,56.54,40.08,84.5c4.55,18.95,7.85,51.35,7.85,77.04h20.48c0-27.09-3.54-61.5-8.41-81.82    c-7.32-30.51-21.46-60.43-43.24-91.48c-42.62-60.74-37.52-121.76-37.42-123.34c0-96.16,79.12-174.4,176.37-174.4    c97.26,0,176.38,78.24,176.38,174.4v2.65l49.42,89.19H395.8v92.16h-81.92v112.64h20.48v-92.16h81.92V307.2h58.34L410.9,192.2z"
   id="path1" />
	</g>
</g>
<g
   id="g4">
	<g
   id="g3">
		<path
   d="M283.16,143.36v-20.48h-20.48V92.16H242.2v30.72h-20.48V92.16h-20.48v30.72h-20.48V92.16h-20.48v30.72H139.8v20.48h-30.72    v20.48h30.72v20.48h-30.72v20.48h30.72v20.48h-30.72v20.48h30.72v20.48h20.48v30.72h20.48v-30.72h20.48v30.72h20.48v-30.72h20.48    v30.72h20.48v-30.72h20.48v-20.48h30.72v-20.48h-30.72V204.8h30.72v-20.48h-30.72v-20.48h30.72v0v-20.48H283.16z M262.68,245.76    h-102.4v-102.4h102.4V245.76z"
   id="path2" />
	</g>
</g>
</svg>
